<svg version="1.1" viewBox="0 0 640 400" xmlns="http://www.w3.org/2000/svg" xmlns:xlink="http://www.w3.org/1999/xlink" matcher="0.5368002840739645">
	<g viewBox="0 0 640 400" matcher="0.5368002840739645">
		<g matcher="0.5368002840739645">
			<g matcher="0.5368002840739645">
				<g matcher="0.5368002840739645">
					<svg viewBox="0 0 640 400" data-background-color="#f84e45" preserveAspectRatio="xMidYMid meet" height="400" width="640" xmlns="http://www.w3.org/2000/svg" xmlns:xlink="http://www.w3.org/1999/xlink">
						<rect width="640" height="400" x="0" y="0" opacity="1" fill="#f84e45" data-fill-palette-color="background" id="background"></rect>
						<g id="tight-bounds" transform="matrix(1,0,0,1,122.24000000000001,176.00178227848102)">
							<svg viewBox="0 0 395.52 47.996435443037974" height="47.996435443037974" width="395.52">
								<g>
									<svg viewBox="0 0 395.52 47.996435443037974" height="47.996435443037974" width="395.52">
										<g>
											<svg viewBox="0 0 395.52 47.996435443037974" height="47.996435443037974" width="395.52">
												<g id="textblocktransform">
													<svg viewBox="0 0 395.52 47.996435443037974" height="47.996435443037974" width="395.52" id="textblock">
														<g>
															<svg viewBox="0 0 395.52 47.996435443037974" height="47.996435443037974" width="395.52">
																<g transform="matrix(1,0,0,1,0,0)">
																	<svg width="395.52" viewBox="0.75 -35.45000076293945 296.2300109863281 35.95000076293945" height="47.996435443037974" data-palette-color="#840028">
																		<path d="M26 0.1L26 0.1Q21.65 0.1 21.3-1.3L21.3-1.3 19.65-7.75 11.7-7.75 10.25-1.55Q9.95 0 5.45 0L5.45 0Q3.05 0 1.9-0.28 0.75-0.55 0.75-0.7L0.75-0.7 9.6-34.55Q9.6-34.95 16.45-34.95 23.3-34.95 23.3-34.55L23.3-34.55 31.95-0.65Q31.95-0.3 29.65-0.1 27.35 0.1 26 0.1ZM15.65-24.45L12.95-14.1 18.2-14.1 15.95-24.45 15.65-24.45ZM35.25-2.3L35.25-2.3 35.25-32.3Q35.25-33.55 35.87-34.27 36.5-35 37.5-35L37.5-35 45.85-35Q53.8-35 57.92-31 62.05-27 62.05-18.4L62.05-18.4Q62.05 0 46.35 0L46.35 0 37.8 0Q35.25 0 35.25-2.3ZM45.35-25.5L44.85-25.5 44.85-10.55Q44.85-9.5 45-9.22 45.15-8.95 45.9-8.95L45.9-8.95Q48.65-8.95 50.07-11 51.5-13.05 51.5-17.82 51.5-22.6 50.02-24.05 48.55-25.5 45.35-25.5L45.35-25.5ZM102.84-34.05L102.84-1.1Q102.84-0.05 98.14-0.05 93.44-0.05 93.04-0.8L93.04-0.8 84.69-16.4 84.69-0.85Q84.69 0.05 80.07 0.05 75.44 0.05 75.44-0.85L75.44-0.85 75.44-34.3Q75.44-35.05 79.39-35.05L79.39-35.05Q80.94-35.05 83.02-34.77 85.09-34.5 85.54-33.75L85.54-33.75 93.54-18.35 93.54-34.05Q93.54-35 98.19-35 102.84-35 102.84-34.05L102.84-34.05ZM117.64-21.1L124.09-21.1Q125.04-21.1 125.04-17.6L125.04-17.6Q125.04-16.55 124.81-15.13 124.59-13.7 123.99-13.7L123.99-13.7 117.64-13.7 117.64-8.7 126.84-8.7Q127.69-8.7 127.99-6.5L127.99-6.5Q128.14-5.55 128.14-4.48 128.14-3.4 127.84-1.7 127.54 0 126.84 0L126.84 0 109.74 0Q107.84 0 107.84-1.55L107.84-1.55 107.84-33.7Q107.84-35 108.99-35L108.99-35 126.89-35Q127.94-35 127.94-30.58 127.94-26.15 126.89-26.15L126.89-26.15 117.64-26.15 117.64-21.1ZM147.54-25.9L147.54-0.8Q147.54 0.2 142.59 0.2 137.64 0.2 137.64-0.8L137.64-0.8 137.64-25.9 131.64-25.9Q130.79-25.9 130.44-28.2L130.44-28.2Q130.29-29.3 130.29-30.45 130.29-31.6 130.44-32.7L130.44-32.7Q130.79-35 131.64-35L131.64-35 153.39-35Q154.24-35 154.59-32.7L154.59-32.7Q154.74-31.6 154.74-30.45 154.74-29.3 154.59-28.2L154.59-28.2Q154.24-25.9 153.39-25.9L153.39-25.9 147.54-25.9ZM161.28-1.25L156.14-34.5Q155.99-35.05 161.19-35.05L161.19-35.05Q166.94-35.05 167.09-34.1L167.09-34.1 169.53-13.05 174.84-34.35Q175.09-35.1 178.74-35.1 182.39-35.1 182.64-34.4L182.64-34.4 187.84-12.95 190.74-34.2Q190.84-34.75 193.04-34.95 195.24-35.15 196.59-35.15L196.59-35.15Q201.84-35.15 201.69-34.45L201.69-34.45 195.64-1.3Q195.44-0.55 192.79-0.2 190.14 0.15 188.49 0.15L188.49 0.15Q182.29 0.15 181.99-1.25L181.99-1.25 178.59-15 174.89-1.3Q174.69-0.4 171.39 0L171.39 0Q169.69 0.15 167.99 0.15L167.99 0.15 164.78 0Q161.49-0.35 161.28-1.25L161.28-1.25ZM219.11 0.5Q212.08 0.5 207.66-4.1 203.23-8.7 203.23-17.53 203.23-26.35 207.71-30.9 212.18-35.45 219.26-35.45 226.33-35.45 230.68-30.98 235.03-26.5 235.03-17.43 235.03-8.35 230.58-3.93 226.13 0.5 219.11 0.5ZM219.13-25.85Q216.73-25.85 215.11-23.65 213.48-21.45 213.48-17.48 213.48-13.5 215.03-11.38 216.58-9.25 219.11-9.25 221.63-9.25 223.21-11.4 224.78-13.55 224.78-17.55 224.78-21.55 223.16-23.7 221.53-25.85 219.13-25.85ZM248.58-12.05L248.58-0.7Q248.58 0.1 243.83 0.1L243.83 0.1Q239.03 0.1 239.03-0.65L239.03-0.65 239.03-33.25Q239.03-35 240.88-35L240.88-35 250.43-35Q263.58-35 263.58-24.75L263.58-24.75Q263.58-21.65 262.38-19.13 261.18-16.6 258.98-15.1L258.98-15.1 265.28-4.6Q264.88-3.4 262.68-1.85L262.68-1.85Q259.68 0.3 257.73 0.3 255.78 0.3 254.83-1.1L254.83-1.1 250.13-12.05 248.58-12.05ZM249.63-26.15L248.58-26.15 248.58-18.65 248.83-18.65Q253.58-18.65 253.58-22.6L253.58-22.6Q253.58-24.4 252.66-25.28 251.73-26.15 249.63-26.15L249.63-26.15ZM278.53-12.75L278.53-0.7Q278.53 0.05 273.83 0.05L273.83 0.05 271.03-0.1Q268.53-0.3 268.53-0.8L268.53-0.8 268.53-34.35Q268.53-35.2 273.53-35.2 278.53-35.2 278.53-34.35L278.53-34.35 278.53-21.55 284.63-34.35Q284.98-35.05 288.63-35.05L288.63-35.05Q295.28-35.05 295.63-33.9L295.63-33.9Q295.63-33.8 295.58-33.7L295.58-33.7 286.88-18 296.98-4.05Q296.98-3.95 296.03-3.2L296.03-3.2Q293.73-1.2 290.63-0.05L290.63-0.05Q289.68 0.3 288.73 0.3L288.73 0.3 287.53 0.2Q285.93-0.2 285.03-1.85L285.03-1.85 279.33-12.75 278.53-12.75Z" opacity="1" transform="matrix(1,0,0,1,0,0)" fill="#840028" class="wordmark-text-0" data-fill-palette-color="primary" id="text-0"></path>
																	</svg>
																</g>
															</svg>
														</g>
													</svg>
												</g>
											</svg>
										</g>
										<g></g>
									</svg>
								</g>
								<defs></defs>
							</svg>
							<rect width="395.52" height="47.996435443037974" fill="none" stroke="none" visibility="hidden"></rect>
						</g>
					</svg>
				</g>
			</g>
		</g>
	</g>
	<rect width="407.4932550099402" height="59.99645656987178" x="117.25332950004747" y="171.00179581201462" rx="2.5" ry="2.5" fill="transparent" class="logo-element-hover-target"></rect>
</svg>
