<svg version="1.1" viewBox="0 0 640 400" xmlns="http://www.w3.org/2000/svg" xmlns:xlink="http://www.w3.org/1999/xlink" matcher="0.5203404039807069">
	<g viewBox="0 0 640 400" matcher="0.5203404039807069">
		<g matcher="0.5203404039807069">
			<g matcher="0.5203404039807069">
				<g matcher="0.5203404039807069">
					<svg viewBox="0 0 640 400" data-background-color="#27aeef" preserveAspectRatio="xMidYMid meet" height="400" width="640" xmlns="http://www.w3.org/2000/svg" xmlns:xlink="http://www.w3.org/1999/xlink">
						<rect width="640" height="400" x="0" y="0" opacity="1" fill="#27aeef" data-fill-palette-color="background" id="background"></rect>
						<g id="tight-bounds" transform="matrix(1,0,0,1,122.24000000000001,76.4)">
							<svg viewBox="0 0 395.52 247.2" height="247.2" width="395.52">
								<g>
									<svg></svg>
								</g>
								<g>
									<svg viewBox="0 0 395.52 247.2" height="247.2" width="395.52">
										<g transform="matrix(1,0,0,1,106.14620533751962,47.215199999999996)">
											<svg viewBox="0 0 183.22758932496075 152.7696" height="152.7696" width="183.22758932496075">
												<g>
													<svg viewBox="0 0 183.22758932496075 152.7696" height="152.7696" width="183.22758932496075">
														<g>
															<svg viewBox="0 0 183.22758932496075 152.7696" height="152.7696" width="183.22758932496075">
																<g>
																	<svg viewBox="0 0 183.22758932496075 152.7696" height="152.7696" width="183.22758932496075">
																		<g id="textblocktransform">
																			<svg viewBox="0 0 183.22758932496075 152.7696" height="152.7696" width="183.22758932496075" id="textblock">
																				<g>
																					<svg viewBox="0 0 183.22758932496075 152.7696" height="152.7696" width="183.22758932496075">
																						<g transform="matrix(1,0,0,1,0,0)">
																							<svg width="183.22758932496075" viewBox="1.2300000190734863 -31.850000381469727 38.189998626708984 31.850000381469727" height="152.7696" data-palette-color="#ffffff">
																								<path d="M6.23 0L1.23 0 12.13-31.85 18-31.85 28.58 0 23.58 0 21.1-7.6 8.8-7.6 6.23 0ZM14.98-26.13L10-11.25 19.93-11.25 14.98-26.13ZM39.42 0L34.67 0 34.67-31.85 39.42-31.85 39.42 0Z" opacity="1" transform="matrix(1,0,0,1,0,0)" fill="#ffffff" class="wordmark-text-0" data-fill-palette-color="primary" id="text-0"></path>
																							</svg>
																						</g>
																					</svg>
																				</g>
																			</svg>
																		</g>
																	</svg>
																</g>
															</svg>
														</g>
													</svg>
												</g>
											</svg>
										</g>
										<g>
											<path d="M215.214 0c30.402 0 58.24 10.976 79.768 29.183l-11.147 0c-19.26-14.022-42.974-22.294-68.621-22.295-25.647 0-49.361 8.272-68.621 22.295l-11.147 0c21.528-18.206 49.366-29.183 79.768-29.183zM338.814 123.6c0 33.468-13.302 63.829-34.908 86.085v-10.218c17.468-20.402 28.019-46.902 28.019-75.867 0-28.964-10.551-55.465-28.019-75.867v-10.218c21.606 22.256 34.908 52.617 34.908 86.085zM215.214 247.2c-30.402 0-58.24-10.976-79.768-29.183h11.147c19.26 14.022 42.974 22.294 68.621 22.295 25.647 0 49.361-8.272 68.621-22.295l11.147 0c-21.528 18.206-49.366 29.183-79.768 29.183z" fill="#ffffff" stroke="transparent" data-fill-palette-color="tertiary"></path>
										</g>
									</svg>
								</g>
								<defs></defs>
							</svg>
							<rect width="395.52" height="247.2" fill="none" stroke="none" visibility="hidden"></rect>
						</g>
					</svg>
				</g>
			</g>
		</g>
	</g>
	<rect width="195.1795619355671" height="164.7696049170902" x="223.41015692392853" y="118.61519456122272" rx="2.5" ry="2.5" fill="transparent" class="logo-element-hover-target"></rect>
</svg>
