<svg version="1.1" viewBox="0 0 640 400" xmlns="http://www.w3.org/2000/svg" xmlns:xlink="http://www.w3.org/1999/xlink" matcher="0.5760518977195686">
	<g viewBox="0 0 640 400" matcher="0.5760518977195686">
		<g matcher="0.5760518977195686">
			<g matcher="0.5760518977195686">
				<g matcher="0.5760518977195686">
					<svg viewBox="0 0 640 400" data-background-color="#282634" preserveAspectRatio="xMidYMid meet" height="400" width="640" xmlns="http://www.w3.org/2000/svg" xmlns:xlink="http://www.w3.org/1999/xlink">
						<rect width="640" height="400" x="0" y="0" opacity="1" fill="#282634" data-fill-palette-color="background" id="background"></rect>
						<g id="tight-bounds" transform="matrix(1,0,0,1,122.24000000000001,139.67355112431056)">
							<svg viewBox="0 0 395.52 120.65289775137884" height="120.65289775137884" width="395.52">
								<g>
									<svg viewBox="0 0 395.52 120.65289775137884" height="120.65289775137884" width="395.52">
										<g>
											<svg viewBox="0 0 395.52 120.65289775137884" height="120.65289775137884" width="395.52">
												<g id="textblocktransform">
													<svg viewBox="0 0 395.52 120.65289775137884" height="120.65289775137884" width="395.52" id="textblock">
														<g>
															<svg viewBox="0 0 395.52 120.65289775137884" height="120.65289775137884" width="395.52">
																<g transform="matrix(1,0,0,1,0,0)">
																	<svg width="395.52" viewBox="0.550000011920929 -35.45000076293945 117.83999633789062 35.95000076293945" height="120.65289775137884" data-palette-color="#ff4057">
																		<path d="M9.3-1.05L0.55-34.35Q0.55-34.6 2.73-34.83 4.9-35.05 6.3-35.05L6.3-35.05Q11.85-35.05 12.1-33.6L12.1-33.6 16.4-11.6 20.45-33.6Q20.75-35.05 26.65-35.05L26.65-35.05Q28.1-35.05 30.3-34.85 32.5-34.65 32.5-34.4L32.5-34.4 23.65-1.3Q23.45-0.5 20.7-0.25L20.7-0.25Q16.45 0.2 12.98-0.08 9.5-0.35 9.3-1.05L9.3-1.05ZM35.05-2.95L35.05-2.95 35.05-34.05Q35.05-35.1 40.12-35.1 45.2-35.1 45.2-34.05L45.2-34.05 45.2-9.55 52.9-9.55Q53.8-9.55 54.15-7.2L54.15-7.2Q54.3-6.05 54.3-4.85 54.3-3.65 54.15-2.4L54.15-2.4Q53.75 0 52.85 0L52.85 0 37.45 0Q36.35 0 35.7-0.9 35.05-1.8 35.05-2.95ZM72.17 0.5Q65.15 0.5 60.72-4.1 56.3-8.7 56.3-17.53 56.3-26.35 60.77-30.9 65.25-35.45 72.32-35.45 79.4-35.45 83.75-30.98 88.1-26.5 88.1-17.43 88.1-8.35 83.65-3.93 79.2 0.5 72.17 0.5ZM72.2-25.85Q69.8-25.85 68.17-23.65 66.55-21.45 66.55-17.48 66.55-13.5 68.1-11.38 69.65-9.25 72.17-9.25 74.7-9.25 76.27-11.4 77.85-13.55 77.85-17.55 77.85-21.55 76.22-23.7 74.6-25.85 72.2-25.85ZM110.59-10.45L110.59-10.45 110.69-17.25Q110.69-17.95 112.14-18.18 113.59-18.4 114.54-18.4L114.54-18.4 116.49-18.25Q118.39-17.95 118.39-17.2L118.39-17.2 118.19-1.55Q117.19-0.85 114.17-0.18 111.14 0.5 107.24 0.5L107.24 0.5Q99.99 0.5 95.54-4.2 91.09-8.9 91.09-18L91.09-18Q91.09-25.75 95.44-30.6 99.79-35.45 107.49-35.45L107.49-35.45Q110.99-35.45 113.82-34.77 116.64-34.1 117.69-32.95L117.69-32.95Q117.74-32.55 117.74-31.45 117.74-30.35 116.99-28.33 116.24-26.3 115.29-25.3 114.34-24.3 113.92-24.3 113.49-24.3 113.02-24.68 112.54-25.05 111.14-25.48 109.74-25.9 108.44-25.9L108.44-25.9Q105.34-25.9 103.42-23.9 101.49-21.9 101.49-17.7 101.49-13.5 103.47-11.33 105.44-9.15 108.02-9.15 110.59-9.15 110.59-10.45Z" opacity="1" transform="matrix(1,0,0,1,0,0)" fill="#ff4057" class="wordmark-text-0" data-fill-palette-color="primary" id="text-0"></path>
																	</svg>
																</g>
															</svg>
														</g>
													</svg>
												</g>
											</svg>
										</g>
										<g></g>
									</svg>
								</g>
								<defs></defs>
							</svg>
							<rect width="395.52" height="120.65289775137884" fill="none" stroke="none" visibility="hidden"></rect>
						</g>
					</svg>
				</g>
			</g>
		</g>
	</g>
	<rect width="407.48637421998535" height="132.65289343471267" x="117.2567953794321" y="134.6735566735133" rx="2.5" ry="2.5" fill="transparent" class="logo-element-hover-target"></rect>
</svg>
